Simulation
nRows=15
nColumns=15
endheader
time  TH_x TH_y TH_z SC_y  SC_z  SC_x  AC_y  AC_z  AC_x  GH_y  GH_z  GH_yy  EL_x  PS_y
2.0666666666666664  0.000000  0.000000  0.000000  -26.541475578650864  13.191583179348699  26.13484102047577  64.41037073373536  10.503005839568363  17.706324112582305  44.28296754112391  69.97677762992147  -18.76431274212369  16.283122518716922  120.000000
2.1071895424836597  0.000000  0.000000  0.000000  -26.582193502996574  13.194754895995539  26.197914323981678  64.36340642701552  10.509401731616252  17.710471245696457  44.334481580543894  69.95303846570489  -18.78773546890794  16.322859329926086  120.000000
2.1477124183006535  0.000000  0.000000  0.000000  -26.62402780480606  13.186804601317295  26.247218972140516  64.28885748017616  10.535175997605002  17.700191032592024  44.38435248026765  69.90972040607404  -18.88144711951292  16.36608791485422  120.000000
2.188235294117647  0.000000  0.000000  0.000000  -26.654062325122474  13.162235069956308  26.27098981364818  64.19127693898784  10.572608220119873  17.660115520140582  44.42166476522111  69.84810140354416  -19.066710338086416  16.394958365592878  120.000000
2.22875816993464  0.000000  0.000000  0.000000  -26.659893729295725  13.11594501873331  26.259284228556716  64.07501712884562  10.613285722243038  17.574888565472715  44.436161079038555  69.76905763653798  -19.363259412062366  16.39263980195594  120.000000
2.269281045751634  0.000000  0.000000  0.000000  -26.631024128028685  13.043602701664355  26.205106808614467  63.94354582772308  10.649236346842317  17.430716675941405  44.41985858555494  69.67243714934297  -19.787779323645776  16.3452959882728  120.000000
2.3098039215686272  0.000000  0.000000  0.000000  -26.56026148645936  12.94190643929961  26.105218611837945  63.79845686241347  10.673983377460623  17.216788484601338  44.368363947591455  69.556125824959  -20.352092175013745  16.244550300294605  120.000000
2.3503267973856206  0.000000  0.000000  0.000000  -26.444489725498048  12.808719362093834  25.960321562586024  63.6388065935433  10.683370255508  16.92600390444942  44.28157446187143  69.4154367141238  -21.062185871435982  16.089082025881584  120.000000
2.390849673202614  0.000000  0.000000  0.000000  -26.284341963311103  12.643097374112633  25.774407941774566  63.46109755210531  10.675791614141572  16.555258704452392  44.163611312137306  69.2430917597753  -21.918346740725244  15.88423935192227  120.000000
2.4313725490196076  0.000000  0.000000  0.000000  -26.08303786570364  12.445263285277285  25.553520561125787  63.26002135575869  10.651966052919398  16.105038718483492  44.022030637965315  69.02996304684982  -22.916444958959737  15.639966252372641  120.000000
2.471895424836601  0.000000  0.000000  0.000000  -25.845141273958838  12.216498825989072  25.30441514494673  63.02950931059165  10.614406914175474  15.578780534968399  43.86671306134126  68.76617935883488  -24.049321076969274  15.368487690031092  120.000000
2.5124183006535943  0.000000  0.000000  0.000000  -25.57576302055166  11.959028233851896  25.03357073162811  62.76389701139999  10.566937022406337  14.982093296943056  43.708680859188135  68.44235944680585  -25.30763613753435  15.082661375805143  120.000000
2.552941176470588  0.000000  0.000000  0.000000  -25.2802924710206  11.675841115472108  24.746551874200307  62.45909545922854  10.514218154836264  14.322247015433726  43.55907832903241  68.05094973387953  -26.679572654415377  14.794963744147259  120.000000
2.5934640522875814  0.000000  0.000000  0.000000  -24.964474978465372  11.37053934693841  24.44772361131374  62.113860112492276  10.461269646719881  13.60796946052968  43.42829544953288  67.5876073400605  -28.149766567708642  14.516549498076738  120.000000
2.6339869281045747  0.000000  0.000000  0.000000  -24.6345594391222  11.047289089404817  24.140210300620776  61.730905890616484  10.412876668941937  12.849620829364751  43.325314168372465  67.05248935833357  -29.697871613185846  14.25617180762143  120.000000
